<?xml version="1.0" encoding="UTF-8"?>
<svg width="448px" height="448px" viewBox="0 0 448 448" version="1.1" xmlns="http://www.w3.org/2000/svg" xmlns:xlink="http://www.w3.org/1999/xlink">
    <!-- Generator: Sketch 52.2 (67145) - http://www.bohemiancoding.com/sketch -->
    <title>warning</title>
    <desc>Created with Sketch.</desc>
    <g id="Page-1" stroke="none" stroke-width="1" fill="none" fill-rule="evenodd">
        <g id="warning" fill="#000000" fill-rule="nonzero">
            <path d="M194,446.75 C141.7,439.15 96.4,415.95 61.1,378.65 C30.1,345.85 10.9,307.35 2.4,260.75 C-0.3,246.35 -0.3,202.15 2.4,187.75 C10.9,141.15 30.1,102.65 61.1,69.85 C94.7,34.35 137,11.85 187.5,2.65 C201.9,-0.05 246.1,-0.05 260.5,2.65 C311,11.85 353.3,34.35 386.9,69.85 C417.9,102.65 437.1,141.15 445.6,187.75 C448.3,202.15 448.3,246.35 445.6,260.75 C437.1,307.35 417.9,345.85 386.9,378.65 C353.4,413.95 310.8,436.75 261,445.75 C248.1,448.15 207.5,448.75 194,446.75 Z M233.8,349.35 C238.6,346.95 242.6,342.85 245.4,337.75 C247.5,333.75 247.5,333.25 247.5,272.75 C247.5,212.85 247.5,211.65 245.4,207.25 C241.1,198.15 233.7,193.25 224,193.25 C214.6,193.25 207.4,197.75 202.6,206.75 C200.5,210.75 200.5,211.25 200.5,272.25 C200.5,333.25 200.5,333.75 202.6,337.75 C205.3,342.75 209.4,346.85 214,349.35 C218.8,351.85 228.8,351.85 233.8,349.35 Z M233.8,141.35 C242.2,137.05 247,129.55 247,120.55 C246.9,107.15 237.2,97.25 224.3,97.25 C210.8,97.35 201,106.95 201,120.25 C201,129.45 205.6,136.85 214,141.35 C218.8,143.85 228.8,143.85 233.8,141.35 Z" id="Shape" transform="translate(224.000000, 224.289479) rotate(180.000000) translate(-224.000000, -224.289479) "></path>
        </g>
    </g>
</svg>