<?xml version="1.0" encoding="UTF-8"?>
<svg width="10px" height="15px" viewBox="0 0 10 15" version="1.1" xmlns="http://www.w3.org/2000/svg" xmlns:xlink="http://www.w3.org/1999/xlink">
    <!-- Generator: Sketch 52.2 (67145) - http://www.bohemiancoding.com/sketch -->
    <title>Group 8</title>
    <desc>Created with Sketch.</desc>
    <g id="New-screens" stroke="none" stroke-width="1" fill="none" fill-rule="evenodd">
        <g id="Starcenter---Checkout" transform="translate(-1271.000000, -360.000000)" fill="#FF6C6C">
            <g id="Group-8" transform="translate(1271.000000, 360.000000)">
                <path d="M9.38755102,1.42857143 L6.99367347,1.42857143 C6.8031449,0.593102041 6.06095918,0.000795918367 5.20397959,1.32338585e-13 L4.59173469,1.32338585e-13 C3.7347551,0.000797959184 2.99257143,0.593102041 2.80204082,1.42857143 L0.408163265,1.42857143 C0.18255102,1.42857143 -1.04805054e-13,1.61112857 -1.04805054e-13,1.83673469 L-1.04805054e-13,4.08163265 C-1.04805054e-13,4.19005102 0.0430489796,4.29369388 0.119579592,4.37022449 C0.196110204,4.4467551 0.299744898,4.48980408 0.408171429,4.48980408 L0.546883673,4.48980408 L0.863373469,13.6877633 C0.871344898,13.9077837 1.05151224,14.0815796 1.27153673,14.0815796 L8.52439388,14.0815796 C8.74441429,14.0815796 8.92457755,13.9077918 8.93255714,13.6877633 L9.20839388,5.68388571 C9.21636531,5.45827347 9.0393898,5.2693551 8.81457755,5.26137551 C8.58896531,5.25340408 8.40004694,5.42958367 8.39206735,5.65519184 L8.13059796,13.2651918 L1.66529184,13.2651918 L1.36553673,4.48968163 L9.38778163,4.48968163 C9.4962,4.48968163 9.59984286,4.44663265 9.67637347,4.37010204 C9.75290408,4.29357143 9.79595306,4.18993673 9.79595306,4.0815102 L9.79595306,1.83661224 C9.79595306,1.72819388 9.75290408,1.62455102 9.67637347,1.54802041 C9.59984286,1.4714898 9.49620816,1.42844082 9.38778163,1.42844082 L9.38755102,1.42857143 Z M4.59163265,0.816326531 L5.20387755,0.816326531 C5.60965306,0.816326531 5.97636735,1.05708163 6.13818367,1.42857143 L3.65736735,1.42857143 C3.81919796,1.05708163 4.18589796,0.816326531 4.59167347,0.816326531 L4.59163265,0.816326531 Z M8.97938776,3.67346939 L0.816122449,3.67346939 L0.816122449,2.24489796 L8.97938776,2.24489796 L8.97938776,3.67346939 Z" id="Fill-1"></path>
                <path d="M4.8977551,9.27367347 C4.67214286,9.27367347 4.48959184,9.45623061 4.48959184,9.68183673 L4.48959184,11.6325714 C4.48959184,11.8581837 4.67214898,12.0407347 4.8977551,12.0407347 C5.12336122,12.0407347 5.30591837,11.8581776 5.30591837,11.6325714 L5.30591837,9.68183673 C5.30591837,9.57341837 5.26286939,9.46977551 5.18633878,9.3932449 C5.10980816,9.31671429 5.00617347,9.27366531 4.89774694,9.27366531 L4.8977551,9.27367347 Z" id="Fill-2"></path>
                <path d="M5.30591837,5.91836735 C5.30591837,5.6927551 5.12336122,5.51020408 4.8977551,5.51020408 C4.67214898,5.51020408 4.48959184,5.69276122 4.48959184,5.91836735 L4.48959184,8.40244898 C4.48959184,8.62726531 4.67214898,8.81061224 4.8977551,8.81061224 C5.12336122,8.81061224 5.30591837,8.62725714 5.30591837,8.40244898 L5.30591837,5.91836735 Z" id="Fill-3"></path>
                <path d="M3.06102041,12.0408163 L3.07536939,12.0408163 C3.18378776,12.0368306 3.28581837,11.9905939 3.35996122,11.9108735 C3.43330408,11.831951 3.47316327,11.7267224 3.46917755,11.618302 L3.33046531,7.72483265 C3.32647959,7.61641429 3.28024286,7.51356735 3.20052245,7.44024082 C3.1216,7.36610204 3.01637143,7.32703878 2.90795102,7.33102449 C2.79953265,7.33421429 2.69668571,7.38124694 2.62256327,7.46096735 C2.54842449,7.54068571 2.50936122,7.64671429 2.5141449,7.75513061 L2.65285714,11.6469673 C2.66082857,11.8669878 2.84099592,12.0407837 3.06102041,12.0407837 L3.06102041,12.0408163 Z" id="Fill-4"></path>
                <path d="M2.89367347,6.93877551 C3.11369388,6.93080408 3.2874898,6.75063673 3.2874898,6.53061224 L3.26516735,5.91836735 C3.26516735,5.80755714 3.22052449,5.70153061 3.14080408,5.62420408 C3.06108571,5.54767347 2.95346327,5.50622041 2.84266122,5.51020612 C2.73424286,5.51419184 2.63221224,5.56042857 2.55806939,5.64014898 C2.48472653,5.71907143 2.44486735,5.8243 2.44885306,5.93272041 L2.47117551,6.54496531 C2.47914694,6.76498571 2.65931429,6.93878163 2.87933878,6.93878163 L2.89367347,6.93877551 Z" id="Fill-5"></path>
                <path d="M6.53040816,5.90408163 L6.32632653,11.6183673 C6.32234082,11.7267857 6.3622,11.8320204 6.43554286,11.9109388 C6.50968163,11.9906571 6.61172245,12.0368959 6.72013469,12.0408816 L6.73448367,12.0408816 C6.95450408,12.0408816 7.13466735,11.8670939 7.14264694,11.6470653 L7.34672857,5.93277959 C7.3547,5.70716735 7.17852041,5.51824898 6.95291224,5.51026939 C6.7273,5.50229796 6.53838163,5.67847755 6.53040204,5.90408571 L6.53040816,5.90408163 Z" id="Fill-6"></path>
            </g>
        </g>
    </g>
</svg>