<?xml version="1.0" encoding="UTF-8"?>
<svg width="19px" height="20px" viewBox="0 0 19 20" version="1.1" xmlns="http://www.w3.org/2000/svg" xmlns:xlink="http://www.w3.org/1999/xlink">
    <!-- Generator: Sketch 52.2 (67145) - http://www.bohemiancoding.com/sketch -->
    <title>discount</title>
    <desc>Created with Sketch.</desc>
    <g id="Page-1" stroke="none" stroke-width="1" fill="none" fill-rule="evenodd">
        <g id="discount" transform="translate(1.000000, 1.000000)" fill="#000000">
            <path d="M16.4506986,9.10309194 L16.4506937,9.1030816 L16.4506986,9.10309194 Z M16.4506986,9.10309194 L17.111476,10.4764493 C17.5486327,11.3850739 17.2015358,12.4704036 16.3198736,12.9456277 L14.9908082,13.6620833 C14.9287962,13.6955236 14.8867443,13.7543349 14.8743106,13.8262968 L14.6143383,15.3319135 C14.4421149,16.3293903 13.5300235,17.0027481 12.5386864,16.8602704 L11.0492421,16.6462173 C10.981085,16.6364974 10.9154366,16.6581588 10.8654336,16.7072884 L9.78404263,17.7700963 C9.43422297,18.1139816 8.97532896,18.2999567 8.50002725,18.3 C8.02468845,18.3000432 7.56599345,18.1141179 7.21597791,17.7701165 L6.13463206,16.7073188 C6.08450217,16.6580647 6.01890517,16.6363957 5.95111386,16.6461713 L4.46135019,16.8602701 C4.3734203,16.8729074 4.28518344,16.8792116 4.19744923,16.8792116 C3.30392785,16.8792965 2.54102704,16.2317777 2.38566063,15.3319424 L2.12573143,13.8263046 C2.11329236,13.754327 2.07123913,13.6955193 2.00923001,13.6621039 L0.680128553,12.9456289 C-0.20154296,12.4703578 -0.548628797,11.385101 -0.111472427,10.4764772 L0.549308452,9.10314753 C0.581038697,9.03720224 0.581038697,8.96298479 0.549304973,8.89701662 L-0.111441329,7.52368688 C-0.548598079,6.61506228 -0.201501214,5.52973262 0.680161031,5.05450847 L2.0092264,4.33805293 C2.0712384,4.30461271 2.11329035,4.24580131 2.12572284,4.17384608 L2.38566171,2.6682227 C2.55788298,1.67075812 3.47007364,0.9973422 4.46131365,1.13986591 L5.95087607,1.35393588 C6.01895811,1.36367264 6.08452071,1.34203446 6.13455584,1.29285832 L7.2159629,0.229928972 C7.93476971,-0.476647372 9.06519396,-0.476634514 9.78405669,0.229914224 L10.8654343,1.29274315 C10.9155013,1.34195016 10.9810465,1.36359416 11.0489208,1.35385954 L12.5386767,1.13976183 C13.5297532,0.99729809 14.4421346,1.67075465 14.6143394,2.66812348 L14.8742686,4.17376123 C14.8867077,4.24573895 14.9287609,4.30454662 14.99077,4.33796201 L16.3198715,5.05443702 C17.2015429,5.52970805 17.5486288,6.61496489 17.1114738,7.52358599 L16.4506916,8.89695353 C16.4189613,8.96289882 16.4189613,9.03711628 16.4507036,9.10310228 L16.4506986,9.10309194 Z M15.5562248,11.5003681 L15.556235,11.5003626 C15.6649695,11.4417528 15.7079914,11.3072082 15.652748,11.1923825 L14.991964,9.81904611 C14.7417529,9.29898004 14.7417529,8.70094525 14.991968,8.18087076 L15.6527429,6.8075534 C15.7079569,6.69278813 15.6649355,6.55827827 15.5561902,6.49966265 L14.2271061,5.783197 C13.7219498,5.51093195 13.3750606,5.02586461 13.2765243,4.45528599 L13.0165856,2.94959311 C12.9950909,2.82507716 12.8859545,2.74452926 12.7670864,2.76161569 L11.2773481,2.97571088 C10.7095054,3.05737067 10.1457701,2.87127207 9.73431951,2.46688198 L8.65297701,1.40408753 C8.56595443,1.31858782 8.43391222,1.31858782 8.34695353,1.40405378 L7.26553018,2.46689367 C6.85407572,2.87124557 6.29027248,3.05737054 5.72254071,2.9757148 L4.23283386,2.76162413 C4.11379617,2.74454087 4.00479834,2.82500508 3.98327521,2.9495974 L3.72333791,4.45524677 C3.62485454,5.02575767 3.27797619,5.51080982 2.77280963,5.7831865 L1.4436958,6.49966817 C1.33496067,6.55827827 1.29193925,6.69278814 1.34714941,6.80754546 L2.00793632,8.18092284 C2.25814188,8.70101935 2.25814188,9.29897625 2.00792948,9.819087 L1.34715327,11.1924421 C1.29193925,11.3072075 1.33496067,11.4417173 1.44370603,11.500333 L2.77279018,12.2167986 C3.27794643,12.4890637 3.62483563,12.974131 3.72337067,13.544703 L3.98333909,15.0503674 C4.00485116,15.1748957 4.11400214,15.2554499 4.23284431,15.2383799 L5.72257205,15.0242863 C5.80992188,15.0117216 5.89765448,15.005445 5.98518791,15.005445 C6.4635821,15.005445 6.91951422,15.1929691 7.26561129,15.5331136 L8.34695381,16.5959081 C8.43397638,16.6814078 8.56601857,16.6814078 8.6529808,16.5959384 L9.7344006,15.5331371 C10.1459248,15.1287166 10.7095906,14.9425962 11.27739,15.0243159 L12.7670606,15.2384014 C12.8861421,15.255476 12.99515,15.1750122 13.0166556,15.0504334 L13.2765929,13.5447841 C13.3750763,12.9742731 13.7219546,12.4892209 14.2271212,12.2168443 L15.5562248,11.5003681 Z" id="Shape" stroke="#979797" stroke-width="0.6" fill-rule="nonzero"></path>
            <g id="Group" transform="translate(4.000000, 4.500000)">
                <path d="M8.30348206,0.811819022 C8.09797419,0.606276302 7.76467,0.606276302 7.55912648,0.811819022 L0.611819619,7.75913444 C0.406276098,7.96467716 0.406276098,8.2979444 0.611819619,8.50348712 C0.71459138,8.60625848 0.849303306,8.65766198 0.983979585,8.65766198 C1.11865587,8.65766198 1.25340344,8.60629412 1.35613955,8.50348712 L8.30344641,1.55620734 C8.50906123,1.35062898 8.50906123,1.01739739 8.30348206,0.811819022 Z" id="Path" transform="translate(4.457662, 4.657662) rotate(-7.000000) translate(-4.457662, -4.657662) "></path>
                <path d="M2,0.9 C3.15801943,0.9 4.1,1.84198057 4.1,3 C4.1,4.15801943 3.15801943,5.1 2,5.1 C0.841980562,5.1 -0.1,4.15801944 -0.1,3 C-0.1,1.84198056 0.841980562,0.9 2,0.9 Z M2,3.8090674 C2.44603801,3.8090674 2.80907147,3.44603394 2.80910434,2.99996306 C2.80910434,2.55393456 2.44604507,2.19089566 2,2.19089566 C1.55396321,2.19089566 1.1909326,2.55392627 1.1909326,2.99996306 C1.1909326,3.44603169 1.55395812,3.8090674 2,3.8090674 Z" id="Shape" stroke="#979797" stroke-width="0.2" fill-rule="nonzero"></path>
                <path d="M7,3.9 C8.15801943,3.9 9.1,4.84198057 9.1,6 C9.1,7.15801943 8.15801943,8.1 7,8.1 C5.84198057,8.1 4.9,7.15801943 4.9,6 C4.9,4.84198057 5.84198057,3.9 7,3.9 Z M7,6.8090674 C7.44603679,6.8090674 7.8090674,6.44603679 7.8090674,6 C7.8090674,5.55396321 7.44603679,5.1909326 7,5.1909326 C6.55393137,5.1909326 6.19089566,5.55395812 6.19089566,6 C6.19089566,6.4460285 6.55395493,6.8090674 7,6.8090674 Z" id="Shape" stroke="#979797" stroke-width="0.2" fill-rule="nonzero"></path>
            </g>
        </g>
    </g>
</svg>