<?xml version="1.0" encoding="UTF-8"?>
<svg width="50px" height="33px" viewBox="0 0 50 33" version="1.1" xmlns="http://www.w3.org/2000/svg" xmlns:xlink="http://www.w3.org/1999/xlink">
    <!-- Generator: Sketch 52.2 (67145) - http://www.bohemiancoding.com/sketch -->
    <title>Group 4</title>
    <desc>Created with Sketch.</desc>
    <g id="New-screens" stroke="none" stroke-width="1" fill="none" fill-rule="evenodd">
        <g id="Starcenter---Checkout" transform="translate(-191.000000, -298.000000)">
            <g id="Group-4" transform="translate(191.000000, 298.000000)">
                <polygon id="Rectangle" fill="#7DCDEB" points="27.5 9 41.9994673 9 48.5 19 27.5 19"></polygon>
                <g id="Group-5" opacity="0.699999988" transform="translate(25.000000, 16.666667) scale(-1, 1) translate(-25.000000, -16.666667) translate(0.000000, -0.000000)" fill="#000000">
                    <path d="M18.1772222,0.373333333 L18.1772222,5.82255556 L5.71611111,5.82255556 L0.460056111,14.872 L0.460056111,27.8886667 L4.7895,27.8886667 C5.21050556,30.788 7.69316667,32.9363889 10.6228333,32.9363889 C13.5503333,32.9363889 16.0351667,30.7879444 16.4561667,27.8886667 L32.9495,27.8886667 C33.3705056,30.788 35.8553333,32.9363889 38.7828333,32.9363889 C41.7125,32.9363889 44.1973333,30.7879444 44.6161667,27.8886667 L49.5271667,27.8886667 L49.5271667,0.373666667 L18.1772222,0.373333333 Z M6.66666667,7.48944444 L18.1772222,7.48944444 L18.1772222,14.3277778 L2.70000167,14.3277778 L6.66666667,7.48944444 Z M2.12672333,15.9944444 L18.1772778,15.9944444 L18.1772778,26.2222222 L16.4672222,26.2222222 C16.0462167,23.3251111 13.5613889,21.1745 10.6338889,21.1745 C7.70422222,21.1745 5.22155556,23.3251111 4.80055556,26.2222222 L2.12694611,26.2222222 L2.12672333,15.9944444 Z M10.6272778,31.2894444 C8.91288889,31.2894444 7.36772222,30.2564444 6.71016667,28.6722778 C6.05477778,27.0858889 6.41936667,25.263 7.6325,24.0520556 C8.84561111,22.8389444 10.6707222,22.4787222 12.2548889,23.1362778 C13.8369444,23.7938333 14.8698889,25.3411667 14.8677222,27.0555556 C14.8677222,28.1796667 14.4206722,29.2582222 13.6242222,30.0525 C12.8299444,30.8489444 11.7513889,31.2938333 10.6272778,31.2938333 L10.6272778,31.2894444 Z M38.7889444,31.2894444 C37.0745556,31.2894444 35.5272222,30.2564444 34.8718333,28.6722778 C34.2164444,27.0858889 34.5788667,25.263 35.7941667,24.0520556 C37.0072778,22.8389444 38.8301667,22.4787222 40.4143889,23.1362778 C41.9986111,23.7938333 43.0293889,25.3411667 43.0272222,27.0555556 C43.0272222,28.1796667 42.5801722,29.2582222 41.7858889,30.0525 C40.9916111,30.8489444 39.9130556,31.2938333 38.7889444,31.2938333 L38.7889444,31.2894444 Z M44.6267222,26.2221667 C44.2078833,23.3250556 41.7230556,21.1744444 38.7933889,21.1744444 C35.8658889,21.1744444 33.3810556,23.3250556 32.9600556,26.2221667 L19.8439444,26.2221667 L19.8439444,2.0405 L47.8733889,2.0405 L47.8733889,26.2221667 L44.6267222,26.2221667 Z" id="Fill-1"></path>
                    <polygon id="Fill-2" points="24.3727778 12.7777778 41.7772222 12.7777778 41.7772222 14.4444444 24.3727778 14.4444444"></polygon>
                    <polygon id="Fill-3" points="24.3727778 18.3333333 30.1105556 18.3333333 30.1105556 20 24.3727778 20"></polygon>
                    <polygon id="Fill-4" points="24.3727778 7.22222222 36.2216667 7.22222222 36.2216667 8.88888889 24.3727778 8.88888889"></polygon>
                </g>
            </g>
        </g>
    </g>
</svg>