<?xml version="1.0" encoding="UTF-8"?>
<svg width="35px" height="35px" viewBox="0 0 35 35" version="1.1" xmlns="http://www.w3.org/2000/svg" xmlns:xlink="http://www.w3.org/1999/xlink">
    <!-- Generator: Sketch 52.2 (67145) - http://www.bohemiancoding.com/sketch -->
    <title>Group 14</title>
    <desc>Created with Sketch.</desc>
    <g id="New-screens" stroke="none" stroke-width="1" fill="none" fill-rule="evenodd">
        <g id="Starcenter---Checkout" transform="translate(-346.000000, -296.000000)">
            <g id="Group-14" transform="translate(346.000000, 296.000000)">
                <rect id="Rectangle" fill="#7DCDEB" x="3" y="21.5" width="13" height="7"></rect>
                <g id="Group-3" opacity="0.699999988" transform="translate(0.000000, -0.000000)" fill="#000000">
                    <path d="M31.4203448,1.98494253 C30.941046,0.790597701 29.7938506,0.0127528736 28.513092,0.0127528736 L6.88952874,0.0127528736 C5.60092529,0.0127528736 4.46157471,0.790637931 3.97443103,1.98494253 L0.415010287,10.7144253 C0.375723391,10.8087161 0.336437299,10.9187167 0.336437299,11.0130075 L0.336437299,31.4107661 C0.336437299,33.1472489 1.78222011,34.5772998 3.51870287,34.5772998 L31.8839902,34.5772998 C33.620473,34.5772998 34.9876454,33.1472489 34.9876454,31.4107661 L34.9876454,11.0206511 C34.9876454,10.9185034 34.9876454,10.8163598 34.9483569,10.722069 L31.4203448,1.98494253 Z M29.9667184,2.57422989 L33.0782586,10.2271609 L22.7773966,10.2271609 L21.4102241,1.58417241 L28.505569,1.58417241 C29.1498908,1.58417241 29.7234483,1.97704138 29.9670402,2.57418966 L29.9667184,2.57422989 Z M14.0083276,11.7989425 L21.3156839,11.7989425 L21.3156839,15.6254885 L14.0083276,18.5012816 L14.0083276,11.7989425 Z M14.1419029,10.2274828 L15.5090753,1.58449425 L19.8229259,1.58449425 L21.1822534,10.2274828 L14.1419029,10.2274828 Z M5.43575345,2.57455172 C5.67933333,1.97737931 6.25290287,1.58453448 6.88937989,1.58453448 L13.9139201,1.58453448 L12.5467477,10.227523 L2.33197759,10.227523 L5.43575345,2.57455172 Z M31.8836805,33.014092 L3.5183931,33.014092 C2.65409425,33.014092 1.90762874,32.2833563 1.90762874,31.4190575 L1.90762874,11.7987856 L12.4365943,11.7989425 L12.4365943,19.6562414 C12.4365943,19.9155351 12.5623126,20.1591149 12.7823218,20.308408 C12.9158971,20.3948379 13.0651862,20.4419833 13.2223563,20.4419833 C13.3166431,20.4419833 13.4187908,20.4262695 13.5130816,20.386981 L22.3918172,16.8904408 C22.6903994,16.7725793 22.886846,16.4818661 22.886846,16.1597052 L22.886846,11.7987856 L33.4158115,11.7987856 L33.4158115,31.4189006 C33.4158115,32.2831994 32.7479149,33.0139351 31.8836161,33.0139351 L31.8836805,33.014092 Z" id="Fill-1"></path>
                    <path d="M14.0868966,24.3704598 L4.89356322,24.3704598 C4.46141379,24.3704598 4.10783333,24.7240443 4.10783333,25.1561897 L4.10783333,30.3422241 C4.10783333,30.7743736 4.46141782,31.127954 4.89356322,31.127954 L14.0868966,31.127954 C14.519046,31.127954 14.8726264,30.7743695 14.8726264,30.3422241 L14.8726264,25.1561897 C14.8726264,24.7240402 14.519042,24.3704598 14.0868966,24.3704598 Z M13.3011667,29.5564943 L5.67961494,29.5564943 L5.67961494,25.9420805 L13.3011667,25.9420805 L13.3011667,29.5564943 Z" id="Fill-2"></path>
                </g>
            </g>
        </g>
    </g>
</svg>