<svg width="10" height="15" viewBox="0 0 10 15" xmlns="http://www.w3.org/2000/svg">
    <title>
        Group 8
    </title>
    <g fill="#FF6C6C" fill-rule="evenodd">
        <path d="M9.388 1.429H6.994A1.837 1.837 0 0 0 5.204 0h-.612c-.857 0-1.6.593-1.79 1.429H.408A.408.408 0 0 0 0 1.837v2.245a.408.408 0 0 0 .408.408h.139l.316 9.198c.008.22.189.394.409.394h7.252c.22 0 .4-.174.409-.394l.275-8.004a.409.409 0 0 0-.816-.029l-.261 7.61H1.665l-.3-8.775h8.023a.408.408 0 0 0 .408-.408V1.837a.408.408 0 0 0-.408-.409zM4.592.816h.612c.406 0 .772.241.934.613h-2.48a1.02 1.02 0 0 1 .934-.613zm4.387 2.857H.816V2.245H8.98v1.428z"/>
        <path d="M4.898 9.274a.408.408 0 0 0-.408.408v1.95a.408.408 0 1 0 .816 0v-1.95a.408.408 0 0 0-.408-.408z"/>
        <path d="M5.306 5.918a.408.408 0 1 0-.816 0v2.484a.408.408 0 0 0 .816 0V5.918z"/>
        <path d="M3.061 12.04h.014a.408.408 0 0 0 .394-.422L3.33 7.725a.407.407 0 0 0-.422-.394.407.407 0 0 0-.394.424l.139 3.892c.008.22.188.394.408.394z"/>
        <path d="M2.894 6.939a.408.408 0 0 0 .393-.408l-.022-.613a.41.41 0 0 0-.422-.408.408.408 0 0 0-.394.423l.022.612c.008.22.188.394.408.394h.015z"/>
        <path d="M6.53 5.904l-.204 5.714a.408.408 0 0 0 .394.423h.014c.22 0 .4-.174.409-.394l.204-5.714a.408.408 0 1 0-.817-.029z"/>
    </g>
</svg>
