<svg width="35" height="35" viewBox="0 0 35 35" xmlns="http://www.w3.org/2000/svg">
    <title>
        Group 14
    </title>
    <g fill="none" fill-rule="evenodd">
        <path fill="#7DCDEB" d="M3 21.5h13v7H3z"/>
        <g opacity=".7" fill="#000">
            <path d="M31.42 1.985A3.13 3.13 0 0 0 28.513.013H6.89a3.14 3.14 0 0 0-2.916 1.972l-3.559 8.73a.843.843 0 0 0-.079.298v20.398c0 1.736 1.446 3.166 3.183 3.166h28.365c1.736 0 3.104-1.43 3.104-3.166V11.02c0-.102 0-.205-.04-.299L31.42 1.985zm-1.453.59l3.111 7.652h-10.3L21.41 1.584h7.096a1.58 1.58 0 0 1 1.461.99zm-15.959 9.224h7.308v3.826l-7.308 2.876V11.8zm.134-1.572l1.367-8.643h4.314l1.36 8.643h-7.041zM5.436 2.575c.243-.598.817-.99 1.453-.99h7.025l-1.367 8.643H2.332l3.104-7.653zm26.448 30.44H3.518c-.864 0-1.61-.732-1.61-1.596V11.8h10.529v7.857a.785.785 0 0 0 1.076.731l8.879-3.497a.786.786 0 0 0 .495-.73v-4.361h10.529v19.62c0 .864-.668 1.595-1.532 1.595z"/>
            <path d="M14.087 24.37H4.894a.788.788 0 0 0-.786.786v5.186c0 .432.353.786.786.786h9.193a.788.788 0 0 0 .786-.786v-5.186a.788.788 0 0 0-.786-.786zm-.786 5.186H5.68v-3.614H13.3v3.614z"/>
        </g>
    </g>
</svg>
