<?xml version="1.0" encoding="UTF-8"?><!DOCTYPE svg PUBLIC "-//W3C//DTD SVG 1.1//EN" "http://www.w3.org/Graphics/SVG/1.1/DTD/svg11.dtd"><svg xmlns="http://www.w3.org/2000/svg"><symbol id="icon-alert" viewBox="0 0 448 448">
    <title>
        warning
    </title>
    <path d="M254 1.829c52.3 7.6 97.6 30.8 132.9 68.1 31 32.8 50.2 71.3 58.7 117.9 2.7 14.4 2.7 58.6 0 73-8.5 46.6-27.7 85.1-58.7 117.9-33.6 35.5-75.9 58-126.4 67.2-14.4 2.7-58.6 2.7-73 0-50.5-9.2-92.8-31.7-126.4-67.2-31-32.8-50.2-71.3-58.7-117.9-2.7-14.4-2.7-58.6 0-73 8.5-46.6 27.7-85.1 58.7-117.9 33.5-35.3 76.1-58.1 125.9-67.1 12.9-2.4 53.5-3 67-1zm-39.8 97.4c-4.8 2.4-8.8 6.5-11.6 11.6-2.1 4-2.1 4.5-2.1 65 0 59.9 0 61.1 2.1 65.5 4.3 9.1 11.7 14 21.4 14 9.4 0 16.6-4.5 21.4-13.5 2.1-4 2.1-4.5 2.1-65.5s0-61.5-2.1-65.5c-2.7-5-6.8-9.1-11.4-11.6-4.8-2.5-14.8-2.5-19.8 0zm0 208c-8.4 4.3-13.2 11.8-13.2 20.8.1 13.4 9.8 23.3 22.7 23.3 13.5-.1 23.3-9.7 23.3-23 0-9.2-4.6-16.6-13-21.1-4.8-2.5-14.8-2.5-19.8 0z" fill-rule="nonzero"/>
</symbol><symbol id="icon-check" viewBox="0 0 12 8">
    <title>
        Group 8
    </title>
    <g transform="rotate(45 8.979 6.406)" fill-rule="evenodd">
        <rect x=".707" y="7.707" width="7" height="3" rx="1.5"/>
        <rect transform="rotate(90 6.207 5.707)" x="1.207" y="4.207" width="10" height="3" rx="1.5"/>
    </g>
</symbol><symbol id="icon-delete" viewBox="0 0 10 15">
    <title>
        Group 8
    </title>
    <g fill-rule="evenodd">
        <path d="M9.388 1.429H6.994A1.837 1.837 0 0 0 5.204 0h-.612c-.857 0-1.6.593-1.79 1.429H.408A.408.408 0 0 0 0 1.837v2.245a.408.408 0 0 0 .408.408h.139l.316 9.198c.008.22.189.394.409.394h7.252c.22 0 .4-.174.409-.394l.275-8.004a.409.409 0 0 0-.816-.029l-.261 7.61H1.665l-.3-8.775h8.023a.408.408 0 0 0 .408-.408V1.837a.408.408 0 0 0-.408-.409zM4.592.816h.612c.406 0 .772.241.934.613h-2.48a1.02 1.02 0 0 1 .934-.613zm4.387 2.857H.816V2.245H8.98v1.428z"/>
        <path d="M4.898 9.274a.408.408 0 0 0-.408.408v1.95a.408.408 0 1 0 .816 0v-1.95a.408.408 0 0 0-.408-.408z"/>
        <path d="M5.306 5.918a.408.408 0 1 0-.816 0v2.484a.408.408 0 0 0 .816 0V5.918z"/>
        <path d="M3.061 12.04h.014a.408.408 0 0 0 .394-.422L3.33 7.725a.407.407 0 0 0-.422-.394.407.407 0 0 0-.394.424l.139 3.892c.008.22.188.394.408.394z"/>
        <path d="M2.894 6.939a.408.408 0 0 0 .393-.408l-.022-.613a.41.41 0 0 0-.422-.408.408.408 0 0 0-.394.423l.022.612c.008.22.188.394.408.394h.015z"/>
        <path d="M6.53 5.904l-.204 5.714a.408.408 0 0 0 .394.423h.014c.22 0 .4-.174.409-.394l.204-5.714a.408.408 0 1 0-.817-.029z"/>
    </g>
</symbol><symbol id="icon-discount" viewBox="0 0 19 20">
    <title>
        discount
    </title>
    <g fill-rule="evenodd">
        <path d="M17.45 10.103zm0 0l.661 1.373c.438.91.09 1.994-.791 2.47l-1.33.716a.227.227 0 0 0-.116.164l-.26 1.506a1.841 1.841 0 0 1-2.075 1.528l-1.49-.214a.215.215 0 0 0-.184.061l-1.081 1.063c-.35.344-.809.53-1.284.53s-.934-.186-1.284-.53l-1.081-1.063a.214.214 0 0 0-.184-.06l-1.49.213a1.844 1.844 0 0 1-2.076-1.528l-.26-1.506a.227.227 0 0 0-.116-.164l-1.329-.716a1.875 1.875 0 0 1-.791-2.47l.66-1.373a.235.235 0 0 0 0-.206L.89 8.524a1.875 1.875 0 0 1 .791-2.47l1.33-.716a.227.227 0 0 0 .116-.164l.26-1.506A1.841 1.841 0 0 1 5.46 2.14l1.49.214a.214.214 0 0 0 .184-.061L8.216 1.23a1.82 1.82 0 0 1 2.568 0l1.081 1.063c.05.049.116.07.184.06l1.49-.213a1.841 1.841 0 0 1 2.075 1.528l.26 1.506c.013.072.055.13.117.164l1.329.716a1.875 1.875 0 0 1 .791 2.47l-.66 1.373a.235.235 0 0 0 0 .206zm-.894 2.397a.233.233 0 0 0 .097-.308l-.661-1.373a1.881 1.881 0 0 1 0-1.638l.66-1.373a.233.233 0 0 0-.096-.308l-1.329-.717a1.857 1.857 0 0 1-.95-1.328l-.26-1.505a.222.222 0 0 0-.25-.188l-1.49.214a1.82 1.82 0 0 1-1.543-.51L9.653 2.405a.215.215 0 0 0-.306 0L8.266 3.467a1.82 1.82 0 0 1-1.543.509l-1.49-.214a.222.222 0 0 0-.25.188l-.26 1.505a1.858 1.858 0 0 1-.95 1.328l-1.33.717a.233.233 0 0 0-.096.308l.66 1.373c.251.52.251 1.118 0 1.638l-.66 1.373a.233.233 0 0 0 .097.308l1.329.717c.505.272.852.757.95 1.328l.26 1.505c.022.125.131.205.25.188l1.49-.214a1.82 1.82 0 0 1 1.543.509l1.081 1.063c.087.085.219.085.306 0l1.081-1.063c.412-.404.976-.59 1.543-.509l1.49.214a.222.222 0 0 0 .25-.188l.26-1.505c.098-.57.445-1.056.95-1.328l1.33-.717z" stroke-width=".6" fill-rule="nonzero"/>
        <path d="M12.806 5.872a.526.526 0 0 0-.739.09l-6.049 7.743a.526.526 0 0 0 .83.648l6.049-7.742a.526.526 0 0 0-.09-.74z"/>
        <path d="M7 6.4c1.158 0 2.1.942 2.1 2.1 0 1.158-.942 2.1-2.1 2.1-1.158 0-2.1-.942-2.1-2.1 0-1.158.942-2.1 2.1-2.1zm0 2.91a.81.81 0 0 0 0-1.62.81.81 0 0 0 0 1.62z" stroke-width=".2" fill-rule="nonzero"/>
        <path d="M12 9.4c1.158 0 2.1.942 2.1 2.1 0 1.158-.942 2.1-2.1 2.1-1.158 0-2.1-.942-2.1-2.1 0-1.158.942-2.1 2.1-2.1zm0 2.91a.81.81 0 0 0 0-1.62.81.81 0 0 0 0 1.62z" stroke-width=".2" fill-rule="nonzero"/>
    </g>
</symbol><symbol id="icon-facebook" viewBox="0 0 10 19">
    <title>
        facebook
    </title>
    <path d="M9.766.157v2.946H8.014c-.64 0-1.071.134-1.295.402-.223.268-.335.67-.335 1.205v2.11h3.27l-.435 3.303H6.384v8.471H2.97v-8.47H.123V6.82H2.97V4.387c0-1.384.387-2.457 1.161-3.22C4.904.404 5.934.023 7.222.023c1.093 0 1.941.045 2.544.134z" fill-rule="evenodd"/>
</symbol><symbol id="icon-minus" viewBox="0 0 12 2">
    <title>
        Fill 2
    </title>
    <path d="M1.021 2h9.958A1.01 1.01 0 0 0 12 1c0-.552-.458-.999-1.021-.999L1.02 0A1.01 1.01 0 0 0 0 1c0 .552.458 1 1.021 1z" fill-rule="evenodd"/>
</symbol><symbol id="icon-next-arrow" viewBox="0 0 8 14">
    <title>
        Fill 1
    </title>
    <path d="M.303 12.22a1.05 1.05 0 0 0 0 1.475 1.036 1.036 0 0 0 1.468 0l5.926-5.957a1.05 1.05 0 0 0 0-1.476L1.771.305a1.036 1.036 0 0 0-1.468 0 1.05 1.05 0 0 0 0 1.475l5.196 5.222L.303 12.22z" fill-rule="evenodd"/>
</symbol><symbol id="icon-plus" viewBox="0 0 14 14">
    <title>
        +
    </title>
    <path d="M8.374 5.222h4.639v2.71H8.374v5.286h-2.88V7.932H.83v-2.71h4.663V.278h2.881z" fill-rule="evenodd"/>
</symbol><symbol id="icon-prev-arrow" viewBox="0 0 8 14">
    <title>
        Fill 1 Copy
    </title>
    <path d="M7.697 1.78a1.05 1.05 0 0 0 0-1.475 1.036 1.036 0 0 0-1.468 0L.303 6.262a1.05 1.05 0 0 0 0 1.476l5.926 5.957a1.036 1.036 0 0 0 1.468 0 1.05 1.05 0 0 0 0-1.475L2.501 6.998 7.697 1.78z" fill-rule="evenodd"/>
</symbol></svg>